<svg width="24" height="25" viewBox="0 0 24 25" fill="none" xmlns="http://www.w3.org/2000/svg">
<g clip-path="url(#clip0_4115_1497)">
<path d="M6.75 0.733398C6.94891 0.733398 7.13968 0.812416 7.28033 0.953068C7.42098 1.09372 7.5 1.28449 7.5 1.4834V3.7334H16.5V1.4834C16.5 1.28449 16.579 1.09372 16.7197 0.953068C16.8603 0.812416 17.0511 0.733398 17.25 0.733398C17.4489 0.733398 17.6397 0.812416 17.7803 0.953068C17.921 1.09372 18 1.28449 18 1.4834V3.7334H20.75C21.716 3.7334 22.5 4.5174 22.5 5.4834V21.4834C22.5 21.9475 22.3156 22.3926 21.9874 22.7208C21.6592 23.049 21.2141 23.2334 20.75 23.2334H3.25C2.78587 23.2334 2.34075 23.049 2.01256 22.7208C1.68437 22.3926 1.5 21.9475 1.5 21.4834V5.4834C1.5 4.5174 2.284 3.7334 3.25 3.7334H6V1.4834C6 1.28449 6.07902 1.09372 6.21967 0.953068C6.36032 0.812416 6.55109 0.733398 6.75 0.733398ZM21 10.2334H3V21.4834C3 21.6214 3.112 21.7334 3.25 21.7334H20.75C20.8163 21.7334 20.8799 21.7071 20.9268 21.6602C20.9737 21.6133 21 21.5497 21 21.4834V10.2334ZM3.25 5.2334C3.1837 5.2334 3.12011 5.25974 3.07322 5.30662C3.02634 5.35351 3 5.41709 3 5.4834V8.7334H21V5.4834C21 5.41709 20.9737 5.35351 20.9268 5.30662C20.8799 5.25974 20.8163 5.2334 20.75 5.2334H3.25Z" fill="#888888"/>
</g>
<defs>
<clipPath id="clip0_4115_1497">
<rect width="24" height="24" fill="white" transform="translate(0 0.733398)"/>
</clipPath>
</defs>
</svg>
