<svg width="24" height="30" viewBox="0 0 24 30" fill="none" xmlns="http://www.w3.org/2000/svg">
<path d="M16.5237 23L16.7549 27.6875L12.0135 24.3926L7.24555 27.6906L7.47686 23H5.47442L5.1293 30.0001H7.42255L12.0109 26.8263L16.5779 30.0001H18.8713L18.5262 23H16.5237ZM21.9634 8.68217L21.8262 5.6788L19.294 4.05836L17.6733 1.52592L14.6699 1.38842L12.0003 0.00585938L9.33073 1.38873L6.3273 1.52623L4.70655 4.05836L2.17436 5.6788L2.03723 8.68217L0.654297 11.3518L2.03723 14.0215L2.17473 17.0248L4.70655 18.6452L6.32705 21.1777L9.33048 21.3149L12.0003 22.6978L14.6699 21.3149L17.6733 21.1777L19.2938 18.6452L21.8262 17.025L21.9634 14.0217L23.3463 11.352L21.9634 8.68217ZM19.9855 13.4915L19.8753 15.8986L17.8456 17.1974L16.5469 19.227L14.1397 19.337L12.0003 20.4454L9.86067 19.337L7.45349 19.227L6.15473 17.1974L4.1253 15.8986L4.01536 13.4915L2.90655 11.3518L4.01511 9.21255L4.1253 6.80505L6.15473 5.5063L7.45349 3.47667L9.86067 3.36667L12.0003 2.2583L14.1399 3.36661L16.5471 3.47661L17.8459 5.50623L19.8753 6.80505L19.9852 9.21224L21.094 11.3518L19.9855 13.4915Z" fill="#725A58"/>
</svg>
